<svg width="36" height="38" viewBox="0 0 36 38" fill="none" xmlns="http://www.w3.org/2000/svg">
<path d="M17.9994 0.00342224C15.4451 -0.0865214 13.4671 1.61704 11.3252 2.68748C8.41197 4.35443 5.41208 5.8922 2.55688 7.64556C0.689334 9.11079 -0.168719 11.4686 0.0274008 13.7454C0.0382743 17.7823 0.00573313 21.8201 0.04383 25.8564C0.285666 28.3003 2.0413 30.3745 4.30044 31.3969C7.92711 33.4061 11.5325 35.4526 15.1724 37.4384C17.4863 38.4568 20.2256 38.0285 22.2725 36.6505C25.8885 34.6231 29.5269 32.6314 33.1288 30.5813C35.2007 29.1574 36.1842 26.6529 35.9716 24.2531C35.9607 20.2161 35.9933 16.1784 35.9551 12.1421C35.7131 9.69833 33.9578 7.62373 31.6984 6.60179C28.0716 4.593 24.4656 2.54782 20.8258 0.561854C19.9448 0.166838 18.9662 0.00602705 17.9995 0.00334559L17.9994 0.00342224ZM15.722 10.1692H20.2777V27.83H15.722V10.1692V10.1692ZM21.4548 14.0132H26.0084V27.83H21.4548V14.0132ZM9.9899 21.2209H14.5449V27.83H9.9899V21.2208V21.2209Z" fill="#F8F8F8"/>
</svg>
