<svg width="128" height="52" viewBox="0 0 128 52" fill="none" xmlns="http://www.w3.org/2000/svg">
<path d="M35.15 17.6H27.75V13.2L19.425 9.24V4.4H24.05V0H17.575V9.24L9.25 13.2V17.6H1.85C0.8325 17.6 0 18.59 0 19.8V44H14.8V33H22.2V44H37V19.8C37 18.59 36.1675 17.6 35.15 17.6ZM11.1 39.6H3.7V33H11.1V39.6ZM11.1 28.6H3.7V22H11.1V28.6ZM18.5 13.2C19.5175 13.2 20.35 14.19 20.35 15.4C20.35 16.61 19.5175 17.6 18.5 17.6C17.4825 17.6 16.65 16.61 16.65 15.4C16.65 14.19 17.4825 13.2 18.5 13.2ZM22.2 28.6H14.8V22H22.2V28.6ZM33.3 39.6H25.9V33H33.3V39.6ZM33.3 28.6H25.9V22H33.3V28.6Z" fill="#67BFFF"/>
<path d="M55.6406 38.209H51.5879V37.1836H55.6406C56.487 37.1836 57.1738 37.0469 57.7012 36.7734C58.235 36.4935 58.6224 36.1159 58.8633 35.6406C59.1107 35.1654 59.2344 34.6315 59.2344 34.0391C59.2344 33.4596 59.1107 32.9258 58.8633 32.4375C58.6224 31.9492 58.235 31.5586 57.7012 31.2656C57.1738 30.9661 56.487 30.8164 55.6406 30.8164H52.0078V44H50.8066V29.7812H55.6406C56.6823 29.7812 57.5579 29.9603 58.2676 30.3184C58.9837 30.6764 59.5241 31.1745 59.8887 31.8125C60.2533 32.4505 60.4355 33.1862 60.4355 34.0195C60.4355 34.8919 60.2533 35.6439 59.8887 36.2754C59.5241 36.9004 58.987 37.3789 58.2773 37.7109C57.5677 38.043 56.6888 38.209 55.6406 38.209ZM67.8965 29.7812V44H66.7051V29.7812H67.8965ZM72.7695 29.7812V30.8164H61.8418V29.7812H72.7695ZM87.623 40.5039C87.623 40.1133 87.5579 39.765 87.4277 39.459C87.2975 39.153 87.0827 38.8796 86.7832 38.6387C86.4902 38.3913 86.0931 38.1634 85.5918 37.9551C85.097 37.7402 84.4785 37.5286 83.7363 37.3203C83.0267 37.1185 82.3854 36.8971 81.8125 36.6562C81.2396 36.4154 80.748 36.1387 80.3379 35.8262C79.9342 35.5137 79.625 35.1491 79.4102 34.7324C79.1953 34.3092 79.0879 33.8177 79.0879 33.2578C79.0879 32.7109 79.2051 32.2129 79.4395 31.7637C79.6738 31.3145 80.0026 30.9271 80.4258 30.6016C80.8555 30.276 81.36 30.0254 81.9395 29.8496C82.5254 29.6738 83.1667 29.5859 83.8633 29.5859C84.8594 29.5859 85.7188 29.7747 86.4414 30.1523C87.1706 30.5299 87.7337 31.041 88.1309 31.6855C88.5345 32.3236 88.7363 33.0397 88.7363 33.834H87.5352C87.5352 33.2155 87.3887 32.6654 87.0957 32.1836C86.8092 31.6953 86.3926 31.3145 85.8457 31.041C85.3053 30.7611 84.6445 30.6211 83.8633 30.6211C83.082 30.6211 82.4245 30.7415 81.8906 30.9824C81.3633 31.2168 80.9629 31.5326 80.6895 31.9297C80.4225 32.3203 80.2891 32.7565 80.2891 33.2383C80.2891 33.5768 80.3542 33.8893 80.4844 34.1758C80.6146 34.4557 80.8262 34.7194 81.1191 34.9668C81.4186 35.2077 81.8125 35.4355 82.3008 35.6504C82.7891 35.8587 83.3913 36.0573 84.1074 36.2461C84.8626 36.4544 85.5332 36.6855 86.1191 36.9395C86.7051 37.1934 87.1999 37.4863 87.6035 37.8184C88.0072 38.1439 88.3132 38.5247 88.5215 38.9609C88.7298 39.3971 88.834 39.9049 88.834 40.4844C88.834 41.0638 88.7103 41.5846 88.4629 42.0469C88.222 42.5026 87.8802 42.89 87.4375 43.209C87.0013 43.528 86.4837 43.7721 85.8848 43.9414C85.2923 44.1107 84.6445 44.1953 83.9414 44.1953C83.3099 44.1953 82.6816 44.1139 82.0566 43.9512C81.4316 43.7884 80.8587 43.5378 80.3379 43.1992C79.8236 42.8542 79.4102 42.4115 79.0977 41.8711C78.7917 41.3307 78.6387 40.6862 78.6387 39.9375H79.8301C79.8301 40.5365 79.9505 41.041 80.1914 41.4512C80.4323 41.8613 80.7513 42.1934 81.1484 42.4473C81.5521 42.7012 81.9948 42.8867 82.4766 43.0039C82.9648 43.1146 83.4531 43.1699 83.9414 43.1699C84.6901 43.1699 85.3379 43.0592 85.8848 42.8379C86.4382 42.6165 86.8646 42.3073 87.1641 41.9102C87.4701 41.5065 87.623 41.0378 87.623 40.5039ZM97.7109 39.7617V29.7812H98.9121V39.7617C98.9121 40.7188 98.7233 41.526 98.3457 42.1836C97.9746 42.8411 97.4668 43.3424 96.8223 43.6875C96.1777 44.026 95.4421 44.1953 94.6152 44.1953C93.7689 44.1953 93.0202 44.0456 92.3691 43.7461C91.7246 43.4466 91.2233 42.9941 90.8652 42.3887C90.5072 41.7767 90.3281 41.0052 90.3281 40.0742H91.5293C91.5293 40.7578 91.6497 41.3307 91.8906 41.793C92.138 42.2487 92.4928 42.5938 92.9551 42.8281C93.4173 43.056 93.9707 43.1699 94.6152 43.1699C95.1947 43.1699 95.7155 43.043 96.1777 42.7891C96.6465 42.5286 97.0176 42.1478 97.291 41.6465C97.571 41.1387 97.7109 40.5104 97.7109 39.7617ZM110.494 40.5039C110.494 40.1133 110.429 39.765 110.299 39.459C110.169 39.153 109.954 38.8796 109.654 38.6387C109.361 38.3913 108.964 38.1634 108.463 37.9551C107.968 37.7402 107.35 37.5286 106.607 37.3203C105.898 37.1185 105.257 36.8971 104.684 36.6562C104.111 36.4154 103.619 36.1387 103.209 35.8262C102.805 35.5137 102.496 35.1491 102.281 34.7324C102.066 34.3092 101.959 33.8177 101.959 33.2578C101.959 32.7109 102.076 32.2129 102.311 31.7637C102.545 31.3145 102.874 30.9271 103.297 30.6016C103.727 30.276 104.231 30.0254 104.811 29.8496C105.396 29.6738 106.038 29.5859 106.734 29.5859C107.73 29.5859 108.59 29.7747 109.312 30.1523C110.042 30.5299 110.605 31.041 111.002 31.6855C111.406 32.3236 111.607 33.0397 111.607 33.834H110.406C110.406 33.2155 110.26 32.6654 109.967 32.1836C109.68 31.6953 109.264 31.3145 108.717 31.041C108.176 30.7611 107.516 30.6211 106.734 30.6211C105.953 30.6211 105.296 30.7415 104.762 30.9824C104.234 31.2168 103.834 31.5326 103.561 31.9297C103.294 32.3203 103.16 32.7565 103.16 33.2383C103.16 33.5768 103.225 33.8893 103.355 34.1758C103.486 34.4557 103.697 34.7194 103.99 34.9668C104.29 35.2077 104.684 35.4355 105.172 35.6504C105.66 35.8587 106.262 36.0573 106.979 36.2461C107.734 36.4544 108.404 36.6855 108.99 36.9395C109.576 37.1934 110.071 37.4863 110.475 37.8184C110.878 38.1439 111.184 38.5247 111.393 38.9609C111.601 39.3971 111.705 39.9049 111.705 40.4844C111.705 41.0638 111.581 41.5846 111.334 42.0469C111.093 42.5026 110.751 42.89 110.309 43.209C109.872 43.528 109.355 43.7721 108.756 43.9414C108.163 44.1107 107.516 44.1953 106.812 44.1953C106.181 44.1953 105.553 44.1139 104.928 43.9512C104.303 43.7884 103.73 43.5378 103.209 43.1992C102.695 42.8542 102.281 42.4115 101.969 41.8711C101.663 41.3307 101.51 40.6862 101.51 39.9375H102.701C102.701 40.5365 102.822 41.041 103.062 41.4512C103.303 41.8613 103.622 42.1934 104.02 42.4473C104.423 42.7012 104.866 42.8867 105.348 43.0039C105.836 43.1146 106.324 43.1699 106.812 43.1699C107.561 43.1699 108.209 43.0592 108.756 42.8379C109.309 42.6165 109.736 42.3073 110.035 41.9102C110.341 41.5065 110.494 41.0378 110.494 40.5039Z" fill="white"/>
</svg>
